<?xml version="1.0" encoding="UTF-8" standalone="no"?>
<svg viewBox="0 0 720 720" version="1.1" id="svg1" width="720" height="720" xmlns="http://www.w3.org/2000/svg" xmlns:svg="http://www.w3.org/2000/svg">
  <path d="m 360,616 a 256,256 0 1 0 0,-512 256,256 0 1 0 0,512 z M 271,271 c 9.4,-9.4 24.6,-9.4 33.9,0 l 55,55 55,-55 c 9.4,-9.4 24.6,-9.4 33.9,0 9.3,9.4 9.4,24.6 0,33.9 l -55,55 55,55 c 9.4,9.4 9.4,24.6 0,33.9 -9.4,9.3 -24.6,9.4 -33.9,0 l -55,-55 -55,55 c -9.4,9.4 -24.6,9.4 -33.9,0 -9.3,-9.4 -9.4,-24.6 0,-33.9 l 55,-55 -55,-55 c -9.4,-9.4 -9.4,-24.6 0,-33.9 z"/>
</svg>
